<?xml version="1.0" standalone="no"?>
<!DOCTYPE svg PUBLIC "-//W3C//DTD SVG 1.1//EN"
"http://www.w3.org/Graphics/SVG/1.1/DTD/svg11.dtd">

<svg width="600" height="700" viewBox="0 0 600 700"
xmlns="http://www.w3.org/2000/svg"
xmlns:link="http://www.w3.org/1999/xlink">

<desc>Generated by Mocodo 1.6.1 on Sat, 30 Nov 2013 15:22:15</desc>

<rect x="0" y="0" width="600" height="700" fill="none" stroke="none" stroke-width="0"/>

<!-- Association est disponible -->
<line x1="293" y1="475" x2="407" y2="475" stroke="#000000" stroke-width="1"/>
<text x="325" y="489.425" fill="#000000" font-family="Liberation Serif" font-size="12">1..n</text>
<line x1="535" y1="475" x2="407" y2="475" stroke="#000000" stroke-width="1"/>
<text x="461" y="489.425" fill="#000000" font-family="Liberation Serif" font-size="12">0..n</text>
<g id="association-est disponible">
	<path d="M 439 450 a 14 14 90 0 1 14 14 V 475 h -92 V 464 a 14 14 90 0 1 14 -14" fill="#FFFFFF" stroke="#FFFFFF" stroke-width="0"/>
	<path d="M 453 475 v 11 a 14 14 90 0 1 -14 14 H 375 a 14 14 90 0 1 -14 -14 V 475 H 92" fill="#FFFFFF" stroke="#FFFFFF" stroke-width="0"/>
	<rect x="361" y="450" width="92" height="50" fill="None" rx="14" stroke="#000000" stroke-width="1.5"/>
	<line x1="361" y1="475" x2="453" y2="475" stroke="#000000" stroke-width="1"/>
	<text x="368" y="467.75" fill="#000000" font-family="Liberation Serif" font-size="14">est disponible</text>
	<text x="368" y="492.75" fill="#000000" font-family="Liberation Serif" font-size="14">dateSortie</text>
</g>

<!-- Association appartient -->
<line x1="62" y1="475" x2="186" y2="475" stroke="#000000" stroke-width="1"/>
<text x="112" y="489.425" fill="#000000" font-family="Liberation Serif" font-size="12">0..n</text>
<line x1="293" y1="475" x2="186" y2="475" stroke="#000000" stroke-width="1"/>
<text x="243" y="489.425" fill="#000000" font-family="Liberation Serif" font-size="12">1..n</text>
<g id="association-appartient">
	<path d="M 207 450 a 14 14 90 0 1 14 14 V 475 h -70 V 464 a 14 14 90 0 1 14 -14" fill="#FFFFFF" stroke="#FFFFFF" stroke-width="0"/>
	<path d="M 221 475 v 11 a 14 14 90 0 1 -14 14 H 165 a 14 14 90 0 1 -14 -14 V 475 H 70" fill="#FFFFFF" stroke="#FFFFFF" stroke-width="0"/>
	<rect x="151" y="450" width="70" height="50" fill="None" rx="14" stroke="#000000" stroke-width="1.5"/>
	<line x1="151" y1="475" x2="221" y2="475" stroke="#000000" stroke-width="1"/>
	<text x="158" y="467.75" fill="#000000" font-family="Liberation Serif" font-size="14">appartient</text>
</g>

<!-- Association edite -->
<line x1="293" y1="475" x2="293" y2="557" stroke="#000000" stroke-width="1"/>
<text x="295.75" y="525.05" fill="#000000" font-family="Liberation Serif" font-size="12">1..1</text>
<line x1="293" y1="639" x2="293" y2="557" stroke="#000000" stroke-width="1"/>
<text x="295.75" y="598.05" fill="#000000" font-family="Liberation Serif" font-size="12">0..n</text>
<g id="association-edite">
	<path d="M 300 532 a 14 14 90 0 1 14 14 V 557 h -42 V 546 a 14 14 90 0 1 14 -14" fill="#FFFFFF" stroke="#FFFFFF" stroke-width="0"/>
	<path d="M 314 557 v 11 a 14 14 90 0 1 -14 14 H 286 a 14 14 90 0 1 -14 -14 V 557 H 42" fill="#FFFFFF" stroke="#FFFFFF" stroke-width="0"/>
	<rect x="272" y="532" width="42" height="50" fill="None" rx="14" stroke="#000000" stroke-width="1.5"/>
	<line x1="272" y1="557" x2="314" y2="557" stroke="#000000" stroke-width="1"/>
	<text x="279" y="549.75" fill="#000000" font-family="Liberation Serif" font-size="14">edite</text>
</g>

<!-- Association concerne -->
<line x1="407" y1="274" x2="293" y2="393" stroke="#000000" stroke-width="1"/>
<text x="354.546218487" y="341.05" fill="#000000" font-family="Liberation Serif" font-size="12">1..1</text>
<line x1="293" y1="475" x2="293" y2="393" stroke="#000000" stroke-width="1"/>
<text x="295.75" y="434.05" fill="#000000" font-family="Liberation Serif" font-size="12">0..n</text>
<g id="association-concerne">
	<path d="M 312 368 a 14 14 90 0 1 14 14 V 393 h -66 V 382 a 14 14 90 0 1 14 -14" fill="#FFFFFF" stroke="#FFFFFF" stroke-width="0"/>
	<path d="M 326 393 v 11 a 14 14 90 0 1 -14 14 H 274 a 14 14 90 0 1 -14 -14 V 393 H 66" fill="#FFFFFF" stroke="#FFFFFF" stroke-width="0"/>
	<rect x="260" y="368" width="66" height="50" fill="None" rx="14" stroke="#000000" stroke-width="1.5"/>
	<line x1="260" y1="393" x2="326" y2="393" stroke="#000000" stroke-width="1"/>
	<text x="267" y="385.75" fill="#000000" font-family="Liberation Serif" font-size="14">concerne</text>
</g>

<!-- Association poste2 -->
<line x1="293" y1="68" x2="407" y2="175" stroke="#000000" stroke-width="1"/>
<text x="330" y="131.935964912" fill="#000000" font-family="Liberation Serif" font-size="12">0..n</text>
<line x1="407" y1="274" x2="407" y2="175" stroke="#000000" stroke-width="1"/>
<text x="409.75" y="216.05" fill="#000000" font-family="Liberation Serif" font-size="12">1..1</text>
<g id="association-poste2">
	<path d="M 415 150 a 14 14 90 0 1 14 14 V 175 h -44 V 164 a 14 14 90 0 1 14 -14" fill="#FFFFFF" stroke="#FFFFFF" stroke-width="0"/>
	<path d="M 429 175 v 11 a 14 14 90 0 1 -14 14 H 399 a 14 14 90 0 1 -14 -14 V 175 H 44" fill="#FFFFFF" stroke="#FFFFFF" stroke-width="0"/>
	<rect x="385" y="150" width="44" height="50" fill="None" rx="14" stroke="#000000" stroke-width="1.5"/>
	<line x1="385" y1="175" x2="429" y2="175" stroke="#000000" stroke-width="1"/>
	<text x="392" y="167.75" fill="#000000" font-family="Liberation Serif" font-size="14">poste</text>
</g>

<!-- Association prefere2 -->
<line x1="293" y1="68" x2="535" y2="68" stroke="#000000" stroke-width="1"/>
<text x="330" y="82.425" fill="#000000" font-family="Liberation Serif" font-size="12">1..1</text>
<line x1="535" y1="475" x2="535" y2="68" stroke="#000000" stroke-width="1"/>
<text x="537.75" y="434.05" fill="#000000" font-family="Liberation Serif" font-size="12">0..n</text>
<g id="association-prefere2">
	<path d="M 548 43 a 14 14 90 0 1 14 14 V 68 h -54 V 57 a 14 14 90 0 1 14 -14" fill="#FFFFFF" stroke="#FFFFFF" stroke-width="0"/>
	<path d="M 562 68 v 11 a 14 14 90 0 1 -14 14 H 522 a 14 14 90 0 1 -14 -14 V 68 H 54" fill="#FFFFFF" stroke="#FFFFFF" stroke-width="0"/>
	<rect x="508" y="43" width="54" height="50" fill="None" rx="14" stroke="#000000" stroke-width="1.5"/>
	<line x1="508" y1="68" x2="562" y2="68" stroke="#000000" stroke-width="1"/>
	<text x="515" y="60.75" fill="#000000" font-family="Liberation Serif" font-size="14">prefere</text>
</g>

<!-- Association concerne2 -->
<line x1="535" y1="475" x2="407" y2="393" stroke="#000000" stroke-width="1"/>
<text x="461" y="452.10859375" fill="#000000" font-family="Liberation Serif" font-size="12">0..n</text>
<line x1="407" y1="274" x2="407" y2="393" stroke="#000000" stroke-width="1"/>
<text x="409.75" y="341.05" fill="#000000" font-family="Liberation Serif" font-size="12">1..1</text>
<g id="association-concerne2">
	<path d="M 426 368 a 14 14 90 0 1 14 14 V 393 h -66 V 382 a 14 14 90 0 1 14 -14" fill="#FFFFFF" stroke="#FFFFFF" stroke-width="0"/>
	<path d="M 440 393 v 11 a 14 14 90 0 1 -14 14 H 388 a 14 14 90 0 1 -14 -14 V 393 H 66" fill="#FFFFFF" stroke="#FFFFFF" stroke-width="0"/>
	<rect x="374" y="368" width="66" height="50" fill="None" rx="14" stroke="#000000" stroke-width="1.5"/>
	<line x1="374" y1="393" x2="440" y2="393" stroke="#000000" stroke-width="1"/>
	<text x="381" y="385.75" fill="#000000" font-family="Liberation Serif" font-size="14">concerne</text>
</g>

<!-- Association juge -->
<line x1="186" y1="274" x2="293" y2="274" stroke="#000000" stroke-width="1"/>
<text x="219" y="288.425" fill="#000000" font-family="Liberation Serif" font-size="12">1..1</text>
<line x1="407" y1="274" x2="293" y2="274" stroke="#000000" stroke-width="1"/>
<text x="327" y="288.425" fill="#000000" font-family="Liberation Serif" font-size="12">0..n</text>
<g id="association-juge">
	<path d="M 298 249 a 14 14 90 0 1 14 14 V 274 h -38 V 263 a 14 14 90 0 1 14 -14" fill="#FFFFFF" stroke="#FFFFFF" stroke-width="0"/>
	<path d="M 312 274 v 11 a 14 14 90 0 1 -14 14 H 288 a 14 14 90 0 1 -14 -14 V 274 H 38" fill="#FFFFFF" stroke="#FFFFFF" stroke-width="0"/>
	<rect x="274" y="249" width="38" height="50" fill="None" rx="14" stroke="#000000" stroke-width="1.5"/>
	<line x1="274" y1="274" x2="312" y2="274" stroke="#000000" stroke-width="1"/>
	<text x="281" y="266.75" fill="#000000" font-family="Liberation Serif" font-size="14">juge</text>
</g>

<!-- Association poste -->
<line x1="293" y1="68" x2="186" y2="175" stroke="#000000" stroke-width="1"/>
<text x="238" y="135.175" fill="#000000" font-family="Liberation Serif" font-size="12">0..n</text>
<line x1="186" y1="274" x2="186" y2="175" stroke="#000000" stroke-width="1"/>
<text x="188.75" y="233.05" fill="#000000" font-family="Liberation Serif" font-size="12">1..1</text>
<g id="association-poste">
	<path d="M 194 150 a 14 14 90 0 1 14 14 V 175 h -44 V 164 a 14 14 90 0 1 14 -14" fill="#FFFFFF" stroke="#FFFFFF" stroke-width="0"/>
	<path d="M 208 175 v 11 a 14 14 90 0 1 -14 14 H 178 a 14 14 90 0 1 -14 -14 V 175 H 44" fill="#FFFFFF" stroke="#FFFFFF" stroke-width="0"/>
	<rect x="164" y="150" width="44" height="50" fill="None" rx="14" stroke="#000000" stroke-width="1.5"/>
	<line x1="164" y1="175" x2="208" y2="175" stroke="#000000" stroke-width="1"/>
	<text x="171" y="167.75" fill="#000000" font-family="Liberation Serif" font-size="14">poste</text>
</g>

<!-- Association prefere -->
<line x1="293" y1="68" x2="62" y2="68" stroke="#000000" stroke-width="1"/>
<text x="238" y="82.425" fill="#000000" font-family="Liberation Serif" font-size="12">1..1</text>
<line x1="62" y1="475" x2="62" y2="68" stroke="#000000" stroke-width="1"/>
<text x="64.75" y="434.05" fill="#000000" font-family="Liberation Serif" font-size="12">0..n</text>
<g id="association-prefere">
	<path d="M 75 43 a 14 14 90 0 1 14 14 V 68 h -54 V 57 a 14 14 90 0 1 14 -14" fill="#FFFFFF" stroke="#FFFFFF" stroke-width="0"/>
	<path d="M 89 68 v 11 a 14 14 90 0 1 -14 14 H 49 a 14 14 90 0 1 -14 -14 V 68 H 54" fill="#FFFFFF" stroke="#FFFFFF" stroke-width="0"/>
	<rect x="35" y="43" width="54" height="50" fill="None" rx="14" stroke="#000000" stroke-width="1.5"/>
	<line x1="35" y1="68" x2="89" y2="68" stroke="#000000" stroke-width="1"/>
	<text x="42" y="60.75" fill="#000000" font-family="Liberation Serif" font-size="14">prefere</text>
</g>

<!-- Entity CATEGORIE -->
<g id="entity-CATEGORIE">
	<g id="frame-CATEGORIE">
		<rect x="17" y="441" width="90" height="25" fill="#FFFFFF" stroke="#FFFFFF" stroke-width="0"/>
		<rect x="17" y="466" width="90" height="43" fill="#FFFFFF" stroke="#FFFFFF" stroke-width="0"/>
		<rect x="17" y="441" width="90" height="68" fill="None" stroke="#000000" stroke-width="1.5"/>
		<line x1="17" y1="466" x2="107" y2="466" stroke="#000000" stroke-width="1"/>
	</g>
	<text x="22" y="458.75" fill="#000000" font-family="Liberation Serif" font-size="14">CATEGORIE</text>
	<text x="22" y="483.75" fill="#000000" font-family="Liberation Serif" font-size="14">idCategorie</text>
	<line x1="22" y1="486.0" x2="87" y2="486.0" stroke="#000000" stroke-width="1"/>
	<text x="22" y="500.75" fill="#000000" font-family="Liberation Serif" font-size="14">nomCategorie</text>
</g>

<!-- Entity PLATEFORME -->
<g id="entity-PLATEFORME">
	<g id="frame-PLATEFORME">
		<rect x="484" y="441" width="102" height="25" fill="#FFFFFF" stroke="#FFFFFF" stroke-width="0"/>
		<rect x="484" y="466" width="102" height="43" fill="#FFFFFF" stroke="#FFFFFF" stroke-width="0"/>
		<rect x="484" y="441" width="102" height="68" fill="None" stroke="#000000" stroke-width="1.5"/>
		<line x1="484" y1="466" x2="586" y2="466" stroke="#000000" stroke-width="1"/>
	</g>
	<text x="489" y="458.75" fill="#000000" font-family="Liberation Serif" font-size="14">PLATEFORME</text>
	<text x="489" y="483.75" fill="#000000" font-family="Liberation Serif" font-size="14">idPlateforme</text>
	<line x1="489" y1="486.0" x2="561" y2="486.0" stroke="#000000" stroke-width="1"/>
	<text x="489" y="500.75" fill="#000000" font-family="Liberation Serif" font-size="14">nomPlateforme</text>
</g>

<!-- Entity JEU -->
<g id="entity-JEU">
	<g id="frame-JEU">
		<rect x="266" y="441" width="54" height="25" fill="#FFFFFF" stroke="#FFFFFF" stroke-width="0"/>
		<rect x="266" y="466" width="54" height="43" fill="#FFFFFF" stroke="#FFFFFF" stroke-width="0"/>
		<rect x="266" y="441" width="54" height="68" fill="None" stroke="#000000" stroke-width="1.5"/>
		<line x1="266" y1="466" x2="320" y2="466" stroke="#000000" stroke-width="1"/>
	</g>
	<text x="281" y="458.75" fill="#000000" font-family="Liberation Serif" font-size="14">JEU</text>
	<text x="271" y="483.75" fill="#000000" font-family="Liberation Serif" font-size="14">idJeu</text>
	<line x1="271" y1="486.0" x2="301" y2="486.0" stroke="#000000" stroke-width="1"/>
	<text x="271" y="500.75" fill="#000000" font-family="Liberation Serif" font-size="14">nomJeu</text>
</g>

<!-- Entity COMMENTAIRE -->
<g id="entity-COMMENTAIRE">
	<g id="frame-COMMENTAIRE">
		<rect x="350" y="223" width="114" height="25" fill="#FFFFFF" stroke="#FFFFFF" stroke-width="0"/>
		<rect x="350" y="248" width="114" height="77" fill="#FFFFFF" stroke="#FFFFFF" stroke-width="0"/>
		<rect x="350" y="223" width="114" height="102" fill="None" stroke="#000000" stroke-width="1.5"/>
		<line x1="350" y1="248" x2="464" y2="248" stroke="#000000" stroke-width="1"/>
	</g>
	<text x="355" y="240.75" fill="#000000" font-family="Liberation Serif" font-size="14">COMMENTAIRE</text>
	<text x="355" y="265.75" fill="#000000" font-family="Liberation Serif" font-size="14">idCommentaire</text>
	<line x1="355" y1="268.0" x2="442" y2="268.0" stroke="#000000" stroke-width="1"/>
	<text x="355" y="282.75" fill="#000000" font-family="Liberation Serif" font-size="14">note</text>
	<text x="355" y="299.75" fill="#000000" font-family="Liberation Serif" font-size="14">commentaire</text>
	<text x="355" y="316.75" fill="#000000" font-family="Liberation Serif" font-size="14">dateCommentaire</text>
</g>

<!-- Entity POUCE -->
<g id="entity-POUCE">
	<g id="frame-POUCE">
		<rect x="158" y="240" width="56" height="25" fill="#FFFFFF" stroke="#FFFFFF" stroke-width="0"/>
		<rect x="158" y="265" width="56" height="43" fill="#FFFFFF" stroke="#FFFFFF" stroke-width="0"/>
		<rect x="158" y="240" width="56" height="68" fill="None" stroke="#000000" stroke-width="1.5"/>
		<line x1="158" y1="265" x2="214" y2="265" stroke="#000000" stroke-width="1"/>
	</g>
	<text x="163" y="257.75" fill="#000000" font-family="Liberation Serif" font-size="14">POUCE</text>
	<text x="163" y="282.75" fill="#000000" font-family="Liberation Serif" font-size="14">idPouce</text>
	<line x1="163" y1="285.0" x2="208" y2="285.0" stroke="#000000" stroke-width="1"/>
	<text x="163" y="299.75" fill="#000000" font-family="Liberation Serif" font-size="14">valeur</text>
</g>

<!-- Entity EDITEUR -->
<g id="entity-EDITEUR">
	<g id="frame-EDITEUR">
		<rect x="255" y="605" width="76" height="25" fill="#FFFFFF" stroke="#FFFFFF" stroke-width="0"/>
		<rect x="255" y="630" width="76" height="43" fill="#FFFFFF" stroke="#FFFFFF" stroke-width="0"/>
		<rect x="255" y="605" width="76" height="68" fill="None" stroke="#000000" stroke-width="1.5"/>
		<line x1="255" y1="630" x2="331" y2="630" stroke="#000000" stroke-width="1"/>
	</g>
	<text x="263" y="622.75" fill="#000000" font-family="Liberation Serif" font-size="14">EDITEUR</text>
	<text x="260" y="647.75" fill="#000000" font-family="Liberation Serif" font-size="14">idEditeur</text>
	<line x1="260" y1="650.0" x2="312" y2="650.0" stroke="#000000" stroke-width="1"/>
	<text x="260" y="664.75" fill="#000000" font-family="Liberation Serif" font-size="14">nomEditeur</text>
</g>

<!-- Entity JOUEUR -->
<g id="entity-JOUEUR">
	<g id="frame-JOUEUR">
		<rect x="261" y="17" width="64" height="25" fill="#FFFFFF" stroke="#FFFFFF" stroke-width="0"/>
		<rect x="261" y="42" width="64" height="77" fill="#FFFFFF" stroke="#FFFFFF" stroke-width="0"/>
		<rect x="261" y="17" width="64" height="102" fill="None" stroke="#000000" stroke-width="1.5"/>
		<line x1="261" y1="42" x2="325" y2="42" stroke="#000000" stroke-width="1"/>
	</g>
	<text x="266" y="34.75" fill="#000000" font-family="Liberation Serif" font-size="14">JOUEUR</text>
	<text x="266" y="59.75" fill="#000000" font-family="Liberation Serif" font-size="14">pseudo</text>
	<line x1="266" y1="62.0" x2="306" y2="62.0" stroke="#000000" stroke-width="1"/>
	<text x="266" y="76.75" fill="#000000" font-family="Liberation Serif" font-size="14">nom</text>
	<text x="266" y="93.75" fill="#000000" font-family="Liberation Serif" font-size="14">prenom</text>
	<text x="266" y="110.75" fill="#000000" font-family="Liberation Serif" font-size="14">mail</text>
</g>
</svg>